<?xml version="1.0" encoding="utf-8"?>
<?xml-stylesheet type="text/xsl" href="rss1.xsl"?>
<rss version="2.0" xmlns:atom="http://www.w3.org/2005/Atom" xmlns:content="http://purl.org/rss/1.0/modules/content/" xmlns:dc="http://purl.org/dc/elements/1.1/" xmlns:media="http://search.yahoo.com/mrss/">
<channel>
 <title>Getty</title>
 <link>http://www.gettyimg.com/</link>
 <atom:link href="http://www.gettyimg.com/" rel="self" type="application/rss+xml" />

 
                <item>
                <title><![CDATA[【HD Live Performances】FEED - Usher - Super Bowl LVIII Halftime Show FEED HDTV H264 1080i MP2,DolbyE-J Silver]]></title>
                <link><![CDATA[https://sharemania.us/threads/usher-super-bowl-lviii-halftime-show-feed-hdtv-h264-1080i-mp2-dolbye-j-silver.237580/]]></link>
                <description><![CDATA[<article>
<blockquote class="messageText SelectQuoteContainer ugc baseHtml">
<div style="text-align: center"><img src="https://i123.fastpic.org/big/2024/0212/0a/10428b97e94187e55ae3b4cccd3b2e0a.png" class="bbCodeImage LbImage" alt="[​IMG]" data-url="https://i123.fastpic.org/big/2024/0212/0a/10428b97e94187e55ae3b4cccd3b2e0a.png" style=""><br>
<br>
<a href="https://postimg.cc/pych3975" target="_blank" class="externalLink" rel="nofollow"><img src="https://i.postimg.cc/pych3975/vlcsnap-2024-02-12-14h49m48s696.png" class="bbCodeImage LbImage" alt="[​IMG]" data-url="https://i.postimg.cc/pych3975/vlcsnap-2024-02-12-14h49m48s696.png"></a> <a href="https://postimg.cc/ns1M2MBz" target="_blank" class="externalLink" rel="nofollow"><img src="https://i.postimg.cc/ns1M2MBz/vlcsnap-2024-02-12-14h49m52s354.png" class="bbCodeImage LbImage" alt="[​IMG]" data-url="https://i.postimg.cc/ns1M2MBz/vlcsnap-2024-02-12-14h49m52s354.png"></a> <a href="https://postimg.cc/HrXrJ6Lb" target="_blank" class="externalLink" rel="nofollow"><img src="https://i.postimg.cc/HrXrJ6Lb/vlcsnap-2024-02-12-14h49m54s310.png" class="bbCodeImage LbImage" alt="[​IMG]" data-url="https://i.postimg.cc/HrXrJ6Lb/vlcsnap-2024-02-12-14h49m54s310.png"></a> <a href="https://postimg.cc/sQDxNy4J" target="_blank" class="externalLink" rel="nofollow"><img src="https://i.postimg.cc/sQDxNy4J/vlcsnap-2024-02-12-14h49m56s274.png" class="bbCodeImage LbImage" alt="[​IMG]" data-url="https://i.postimg.cc/sQDxNy4J/vlcsnap-2024-02-12-14h49m56s274.png"></a> <a href="https://postimg.cc/bDCrXM6f" target="_blank" class="externalLink" rel="nofollow"><img src="https://i.postimg.cc/bDCrXM6f/vlcsnap-2024-02-12-14h49m58s344.png" class="bbCodeImage LbImage" alt="[​IMG]" data-url="https://i.postimg.cc/bDCrXM6f/vlcsnap-2024-02-12-14h49m58s344.png"></a> <a href="https://postimg.cc/CnR1wNtB" target="_blank" class="externalLink" rel="nofollow"><img src="https://i.postimg.cc/CnR1wNtB/vlcsnap-2024-02-12-14h50m00s347.png" class="bbCodeImage LbImage" alt="[​IMG]" data-url="https://i.postimg.cc/CnR1wNtB/vlcsnap-2024-02-12-14h50m00s347.png"></a> <br>
<br>
"My Way" (intro)<br>
"Caught Up" (with elements of "U Don't Have to Call" and "Superstar")<br>
"Love in This Club"<br>
"If I Ain't Got You" (with Alicia Keys)<br>
"My Boo" (with Alicia Keys)<br>
"Confessions Part II"<br>
"Burn" (with elements of "Nice &amp; Slow")<br>
"U Got It Bad" (with H.E.R. and elements of "Bad Girl")<br>
"OMG" (with will.i.am)<br>
"Turn Down for What" (with Lil Jon)<br>
"Yeah!" (with Lil Jon, Ludacris and elements of "Get Low")<br>
​</div>
<div class="bbCodeBlock bbCodeCode">
<div class="type">Code:</div>
<pre>General
ID                                       : 3 (0x3)
Complete name                            : D:\Usher - Super Bowl LVIII Halftime Show FEED HDTV H264 1080i MP2,DolbyE-J Silver.ts
Format                                   : MPEG-TS
File size                                : 1.61 GiB
Duration                                 : 13 min 23 s
Overall bit rate mode                    : Variable
Overall bit rate                         : 17.2 Mb/s
Frame rate                               : 25.000 FPS

Video
ID                                       : 408 (0x198)
Menu ID                                  : 1 (0x1)
Format                                   : AVC
Format/Info                              : Advanced Video Codec
Format profile                           : Main@L4
Format settings                          : CABAC / 3 Ref Frames
Format settings, CABAC                   : Yes
Format settings, Reference frames        : 3 frames
Codec ID                                 : 27
Duration                                 : 13 min 23 s
Bit rate mode                            : Constant
Bit rate                                 : 13.3 Mb/s
Width                                    : 1 920 pixels
Height                                   : 1 080 pixels
Display aspect ratio                     : 16:9
Frame rate                               : 25.000 FPS
Color space                              : YUV
Chroma subsampling                       : 4:2:0
Bit depth                                : 8 bits
Scan type                                : Interlaced
Scan type, store method                  : Separated fields
Scan order                               : Top Field First
Bits/(Pixel*Frame)                       : 0.256
Time code of first frame                 : 00:00:00:0000000000
Stream size                              : 1.19 GiB (74%)
Color range                              : Limited
Color primaries                          : BT.709
Transfer characteristics                 : BT.709
Matrix coefficients                      : BT.709

Audio #1
ID                                       : 452 (0x1C4)
Menu ID                                  : 1 (0x1)
Format                                   : MPEG Audio
Format version                           : Version 1
Format profile                           : Layer 2
Codec ID                                 : 3
Duration                                 : 13 min 23 s
Bit rate mode                            : Constant
Bit rate                                 : 192 kb/s
Channel(s)                               : 2 channels
Sampling rate                            : 48.0 kHz
Frame rate                               : 41.667 FPS (1152 SPF)
Compression mode                         : Lossy
Stream size                              : 18.4 MiB (1%)
Language                                 : English
Language, more info                      : Clean effects

Audio #2
ID                                       : 453 (0x1C5)
Menu ID                                  : 1 (0x1)
Format                                   : MPEG Audio
Format version                           : Version 1
Format profile                           : Layer 2
Codec ID                                 : 3
Duration                                 : 13 min 23 s
Bit rate mode                            : Constant
Bit rate                                 : 192 kb/s
Channel(s)                               : 2 channels
Sampling rate                            : 48.0 kHz
Frame rate                               : 41.667 FPS (1152 SPF)
Compression mode                         : Lossy
Stream size                              : 18.4 MiB (1%)
Language                                 : English
Language, more info                      : Clean effects

Audio #3
ID                                       : 454 (0x1C6)-1
Menu ID                                  : 1 (0x1)
Format                                   : Dolby E
Format settings                          : Little
Muxing mode                              : SMPTE ST 302 / SMPTE ST 337
Codec ID                                 : 6
Duration                                 : 13 min 23 s
Bit rate mode                            : Constant
Bit rate                                 : 1 291 kb/s
Channel(s)                               : 6 channels
Channel layout                           : L C Ls X R LFE Rs X
Sampling rate                            : 48.0 kHz
Frame rate                               : 25.000 FPS (1920 SPF)
Bit depth                                : 20 bits
Stream size                              : 124 MiB (7%)
Title                                    : Program 1
Language                                 : English
Language, more info                      : Clean effects

Audio #4
ID                                       : 454 (0x1C6)-2
Menu ID                                  : 1 (0x1)
Format                                   : Dolby E
Format settings                          : Little
Muxing mode                              : SMPTE ST 302 / SMPTE ST 337
Codec ID                                 : 6
Duration                                 : 13 min 23 s
Bit rate mode                            : Constant
Bit rate                                 : 505 kb/s
Channel(s)                               : 2 channels
Channel layout                           : X X X L X X X R
Sampling rate                            : 48.0 kHz
Frame rate                               : 25.000 FPS (1920 SPF)
Bit depth                                : 20 bits
Stream size                              : 48.3 MiB (3%)
Title                                    : Program 2
Language                                 : English
Language, more info                      : Clean effects

Audio #5
ID                                       : 455 (0x1C7)
Menu ID                                  : 1 (0x1)
Format                                   : MPEG Audio
Format version                           : Version 1
Format profile                           : Layer 2
Format settings                          : Dual mono
Codec ID                                 : 3
Duration                                 : 13 min 23 s
Bit rate mode                            : Constant
Bit rate                                 : 192 kb/s
Channel(s)                               : 2 channels
Sampling rate                            : 48.0 kHz
Frame rate                               : 41.667 FPS (1152 SPF)
Compression mode                         : Lossy
Stream size                              : 18.4 MiB (1%)
Language                                 : English
Language, more info                      : Clean effects

Audio #6
ID                                       : 456 (0x1C8)
Menu ID                                  : 1 (0x1)
Format                                   : MPEG Audio
Format version                           : Version 1
Format profile                           : Layer 2
Codec ID                                 : 3
Duration                                 : 13 min 23 s
Bit rate mode                            : Constant
Bit rate                                 : 192 kb/s
Channel(s)                               : 2 channels
Sampling rate                            : 48.0 kHz
Frame rate                               : 41.667 FPS (1152 SPF)
Compression mode                         : Lossy
Stream size                              : 18.4 MiB (1%)
Language                                 : Russian
Language, more info                      : Clean effects

Audio #7
ID                                       : 457 (0x1C9)
Menu ID                                  : 1 (0x1)
Format                                   : MPEG Audio
Format version                           : Version 1
Format profile                           : Layer 2
Format settings                          : Dual mono
Codec ID                                 : 3
Duration                                 : 13 min 23 s
Bit rate mode                            : Constant
Bit rate                                 : 192 kb/s
Channel(s)                               : 2 channels
Sampling rate                            : 48.0 kHz
Frame rate                               : 41.667 FPS (1152 SPF)
Compression mode                         : Lossy
Stream size                              : 18.4 MiB (1%)
Language                                 : Russian
Language, more info                      : Clean effects

Audio #8
ID                                       : 458 (0x1CA)
Menu ID                                  : 1 (0x1)
Format                                   : MPEG Audio
Format version                           : Version 1
Format profile                           : Layer 2
Format settings                          : Dual mono
Codec ID                                 : 3
Duration                                 : 13 min 23 s
Bit rate mode                            : Constant
Bit rate                                 : 192 kb/s
Channel(s)                               : 2 channels
Sampling rate                            : 48.0 kHz
Frame rate                               : 41.667 FPS (1152 SPF)
Compression mode                         : Lossy
Stream size                              : 18.4 MiB (1%)
Language                                 : Russian
Language, more info                      : Clean effects

Audio #9
ID                                       : 459 (0x1CB)
Menu ID                                  : 1 (0x1)
Format                                   : MPEG Audio
Format version                           : Version 1
Format profile                           : Layer 2
Format settings                          : Dual mono
Codec ID                                 : 3
Duration                                 : 13 min 23 s
Bit rate mode                            : Constant
Bit rate                                 : 192 kb/s
Channel(s)                               : 2 channels
Sampling rate                            : 48.0 kHz
Frame rate                               : 41.667 FPS (1152 SPF)
Compression mode                         : Lossy
Stream size                              : 18.4 MiB (1%)
Language                                 : Russian
Language, more info                      : Clean effects
</pre>
</div><div style="text-align: center"><br>
<div class="bbCodeBlock bbCodeVfcHH HiddenContent">
<div class="attribution type">Hidden Content:</div>
<blockquote>You must reply before you can see the hidden data contained here.</blockquote>
</div></div>
<div class="messageTextEndMarker">&nbsp;</div>
</blockquote>
</article>]]></description>
                <author><![CDATA[ilya2129]]></author>
                </item>

                
                <item>
                <title><![CDATA[【Requests】[REQ AUD] - Grace Jones - Inside Story (Dolby Atmos)]]></title>
                <link><![CDATA[https://sharemania.us/threads/grace-jones-inside-story-dolby-atmos.237582/]]></link>
                <description><![CDATA[<article>
<blockquote class="messageText SelectQuoteContainer ugc baseHtml">
thanks
<div class="messageTextEndMarker">&nbsp;</div>
</blockquote>
</article>]]></description>
                <author><![CDATA[MEVCOLLECTOR]]></author>
                </item>

                
                <item>
                <title><![CDATA[【Requests】[REQ VID] - Gwen Stefani - Super Bowl LVIII TikTok Tailgate Performance]]></title>
                <link><![CDATA[https://sharemania.us/threads/gwen-stefani-super-bowl-lviii-tiktok-tailgate-performance.237581/]]></link>
                <description><![CDATA[<article>
<blockquote class="messageText SelectQuoteContainer ugc baseHtml">
thanks
<div class="messageTextEndMarker">&nbsp;</div>
</blockquote>
</article>]]></description>
                <author><![CDATA[xokuba]]></author>
                </item>

                </channel></rss>